<svg width="223" height="42" viewBox="0 0 223 42" fill="none" xmlns="http://www.w3.org/2000/svg">
<path d="M214.166 32.0289H210.757V9.97453H216.83L219.061 24.2851H219.123V9.97453H222.531V32.0289H217.326L214.228 14.6828L214.166 14.7447V32.0289Z" fill="#1992D4"/>
<path d="M203.411 22.8602H204.836L204.247 13.8155H204.123L203.411 22.8602ZM198.453 32.0289L201.737 9.97453H207.531L210.165 32.0289H205.61L205.115 26.0197H203.039L202.357 32.0289H198.453ZM204.681 8.05407L206.447 4.30607H209.143L204.681 8.05407Z" fill="#1992D4"/>
<path d="M187.698 28.4358V13.5677C187.698 12.1841 188.214 11.1413 189.247 10.4392C190.156 9.84031 191.354 9.54089 192.841 9.54089C194.329 9.54089 195.527 9.84031 196.436 10.4392C197.468 11.1413 197.985 12.1841 197.985 13.5677V28.4358C197.985 29.8193 197.468 30.8621 196.436 31.5643C195.527 32.1631 194.329 32.4625 192.841 32.4625C191.354 32.4625 190.156 32.1631 189.247 31.5643C188.214 30.8621 187.698 29.8193 187.698 28.4358ZM193.616 27.7233V14.2801C193.616 13.3095 193.358 12.8243 192.841 12.8243C192.325 12.8243 192.067 13.3095 192.067 14.2801V27.7233C192.067 28.6939 192.325 29.1792 192.841 29.1792C193.358 29.1792 193.616 28.6939 193.616 27.7233Z" fill="#1992D4"/>
<path d="M184.135 13.134V32.0289H179.766V13.134H176.822V9.97453H187.078V13.134H184.135Z" fill="#1992D4"/>
<path d="M157.354 32.0289H153.419V9.97453H160.142L162.032 24.7807H162.094L164.263 9.97453H170.367V32.0289H166.432L166.37 15.7979L163.706 32.0289H159.956L157.416 16.1076H157.354V32.0289Z" fill="#1992D4"/>
<path d="M152.431 32.0289H144.251V9.97453H152.431V13.134H148.619V18.183H152.276V21.3424H148.619V28.8694H152.431V32.0289ZM148.372 6.59823L146.296 8.67357H144.839L147.256 5.32825H149.549L151.904 8.67357H150.479L148.372 6.59823ZM151.842 3.34584H150.51V1.79708C150.51 0.578719 151.129 -0.0201348 152.369 0.000516301C153.587 0.0211674 154.197 0.620021 154.197 1.79708V2.47853C154.197 3.18064 154.011 3.75884 153.639 4.21314C153.37 4.54354 153.236 4.96687 153.236 5.48313V6.59823H151.966L151.656 4.98752C151.656 4.45062 151.78 4.02729 152.028 3.71754C152.462 3.05674 152.678 2.56113 152.678 2.23073V1.79708C152.678 1.44603 152.544 1.2705 152.276 1.2705C151.986 1.2705 151.842 1.44603 151.842 1.79708V3.34584Z" fill="#1992D4"/>
<path d="M142.543 32.0289H138.175V9.97453H142.543V32.0289Z" fill="#1992D4"/>
<path d="M130.518 32.0289H126.149V9.97453H130.518V19.7317H130.58L132.78 9.97453H137.087L134.422 19.1122L137.118 32.0289H132.78L130.58 20.4751H130.518V32.0289Z" fill="#1992D4"/>
<path d="M114.767 28.4358L111.7 22.7673H111.638V27.0109C111.638 28.4564 112.144 29.1792 113.156 29.1792C113.796 29.1792 114.334 28.9314 114.767 28.4358ZM111.948 13.6606V16.2006C111.948 16.5723 112.092 16.9956 112.382 17.4705C113.125 17.3673 113.497 16.8201 113.497 15.8289V13.6606C113.497 13.103 113.239 12.8243 112.722 12.8243C112.206 12.8243 111.948 13.103 111.948 13.6606ZM115.573 19.9176H119.105V22.9222C119.105 23.996 119.053 25.0595 118.95 26.1126C118.867 27.1658 118.826 27.7853 118.826 27.9711C118.826 28.3428 119.012 28.5287 119.384 28.5287H119.973V32.0289H118.268C117.607 32.0289 117.112 31.8121 116.781 31.3784C115.79 32.1012 114.488 32.4625 112.877 32.4625C111.163 32.4625 109.82 32.0599 108.849 31.2545C107.796 30.3872 107.269 29.1172 107.269 27.4445V23.5107C107.269 22.3749 107.393 21.5076 107.641 20.9088C107.971 20.0828 108.591 19.4839 109.5 19.1122C108.488 17.9971 107.982 16.6652 107.982 15.1164V14.4969C107.982 12.8243 108.292 11.6059 108.911 10.8418C109.614 9.97454 110.822 9.54089 112.536 9.54089C114.437 9.54089 115.759 9.97454 116.502 10.8418C117.143 11.5852 117.463 12.8036 117.463 14.4969V15.1164C117.463 16.4587 117.215 17.4292 116.719 18.0281C116.327 18.4617 115.346 19.1019 113.776 19.9486L115.511 23.108H115.573V19.9176Z" fill="#1992D4"/>
<path d="M92.0451 32.0289H88.6369V9.97453H94.7097L96.9406 24.2851H97.0025V9.97453H100.411V32.0289H95.2055L92.1071 14.6828L92.0451 14.7447V32.0289Z" fill="#1992D4"/>
<path d="M81.29 22.8602H82.7153L82.1266 13.8155H82.0026L81.29 22.8602ZM76.3326 32.0289L79.6169 9.97453H85.4109L88.0445 32.0289H83.4899L82.9941 26.0197H80.9182L80.2366 32.0289H76.3326ZM82.5604 8.05407L84.3264 4.30607H87.0221L82.5604 8.05407Z" fill="#1992D4"/>
<path d="M65.5775 28.4358V13.5677C65.5775 12.1841 66.0939 11.1413 67.1267 10.4392C68.0356 9.84031 69.2336 9.54089 70.7208 9.54089C72.2081 9.54089 73.4061 9.84031 74.315 10.4392C75.3478 11.1413 75.8642 12.1841 75.8642 13.5677V28.4358C75.8642 29.8193 75.3478 30.8621 74.315 31.5643C73.4061 32.1631 72.2081 32.4625 70.7208 32.4625C69.2336 32.4625 68.0356 32.1631 67.1267 31.5643C66.0939 30.8621 65.5775 29.8193 65.5775 28.4358ZM71.4954 27.7233V14.2801C71.4954 13.3095 71.2372 12.8243 70.7208 12.8243C70.2044 12.8243 69.9462 13.3095 69.9462 14.2801V27.7233C69.9462 28.6939 70.2044 29.1792 70.7208 29.1792C71.2372 29.1792 71.4954 28.6939 71.4954 27.7233Z" fill="#1992D4"/>
<path d="M62.0141 13.134V32.0289H57.6453V13.134H54.7019V9.97453H64.9576V13.134H62.0141Z" fill="#1992D4"/>
<path d="M48.6764 32.0289H40.4967V9.97454H48.6764V13.134H44.8654V18.183H48.5215V21.3424H44.8654V28.8694H48.6764V32.0289ZM44.5866 6.62922L42.5106 8.70456H41.0544L43.4711 5.35923H45.7639L48.1187 8.70456H46.6935L44.5866 6.62922ZM47.592 6.62922L49.3581 2.88122H52.0537L47.592 6.62922Z" fill="#1992D4"/>
<path d="M33.0879 32.0289H28.7191V9.97453H33.0879V19.7317H33.1498L35.3497 9.97453H39.6565L36.9918 19.1122L39.6874 32.0289H35.3497L33.1498 20.4751H33.0879V32.0289Z" fill="#1992D4"/>
<path d="M221.615 35.6031H221.929C222.192 36.0295 222.405 36.5236 222.569 37.0854C222.745 37.6841 222.833 38.2561 222.833 38.8015C222.833 39.3469 222.745 39.9189 222.569 40.5176C222.405 41.0794 222.192 41.5735 221.929 42H221.615C222.12 40.983 222.372 39.9169 222.372 38.8015C222.372 37.6862 222.12 36.62 221.615 35.6031Z" fill="#1992D4"/>
<path d="M218.101 39.0722L217.664 40.5545H217.104L218.581 35.6031H219.221L220.648 40.5545H220.064L219.652 39.0722H218.101ZM218.901 36.3781L218.237 38.5432H219.498L218.901 36.3781Z" fill="#1992D4"/>
<path d="M213.707 39.0722L213.27 40.5545H212.71L214.187 35.6031H214.827L216.254 40.5545H215.67L215.258 39.0722H213.707ZM214.507 36.3781L213.843 38.5432H215.104L214.507 36.3781Z" fill="#1992D4"/>
<path d="M210.126 39.7918L211.264 35.6031H211.817L210.39 40.5545H209.83L208.39 35.6031H208.95L210.126 39.7918Z" fill="#1992D4"/>
<path d="M206.998 35.6031H207.312C206.807 36.62 206.555 37.6862 206.555 38.8015C206.555 39.9169 206.807 40.983 207.312 42H206.998C206.736 41.5735 206.522 41.0794 206.358 40.5176C206.182 39.9189 206.094 39.3469 206.094 38.8015C206.094 38.2561 206.182 37.6841 206.358 37.0854C206.522 36.5236 206.736 36.0295 206.998 35.6031Z" fill="#1992D4"/>
<path d="M200.737 40.5545H200.201L199.094 36.5318V40.5545H198.559V35.6031H199.297L200.472 39.8164L201.641 35.6031H202.379V40.5545H201.844V36.5318L200.737 40.5545Z" fill="#1992D4"/>
<path d="M194.835 39.0722L194.399 40.5545H193.839L195.315 35.6031H195.955L197.383 40.5545H196.798L196.386 39.0722H194.835ZM195.635 36.3781L194.971 38.5432H196.232L195.635 36.3781Z" fill="#1992D4"/>
<path d="M192.64 40.5545H192.043L189.988 36.5872V40.5545H189.465V35.6031H190.08L192.117 39.6134V35.6031H192.64V40.5545Z" fill="#1992D4"/>
<path d="M184.179 40.5545V36.1689H182.844V35.6031H186.031V36.1689H184.702V40.5545H184.179Z" fill="#1992D4"/>
<path d="M178.022 40.5545V35.603H180.84V36.1689H178.545V37.7313H180.754V38.291H178.545V39.9886H180.932V40.5545H178.022ZM178.945 35.5354H178.526L179.16 34.8588H179.652L180.286 35.5354H179.855L179.418 35.0679L178.945 35.5354ZM179.418 41.2803C179.5 41.2803 179.574 41.2557 179.64 41.2065C179.706 41.1614 179.738 41.0979 179.738 41.0158C179.738 40.9379 179.706 40.8744 179.64 40.8252C179.574 40.7801 179.5 40.7575 179.418 40.7575C179.336 40.7575 179.263 40.7801 179.197 40.8252C179.131 40.8744 179.098 40.9379 179.098 41.0158C179.098 41.0979 179.131 41.1614 179.197 41.2065C179.263 41.2557 179.336 41.2803 179.418 41.2803Z" fill="#1992D4"/>
<path d="M175.846 40.5545V35.6031H176.369V40.5545H175.846Z" fill="#1992D4"/>
<path d="M172.793 39.7918L173.931 35.6031H174.485L173.058 40.5545H172.498L171.058 35.6031H171.618L172.793 39.7918Z" fill="#1992D4"/>
<path d="M167.554 40.5545H166.957L164.902 36.5872V40.5545H164.379V35.6031H164.995L167.031 39.6134V35.6031H167.554V40.5545Z" fill="#1992D4"/>
<path d="M159.834 39.0721L159.397 40.5545H158.837L160.314 35.603H160.96L162.381 40.5545H161.797L161.384 39.0721H159.834ZM160.634 36.378L159.969 38.5432H161.231L160.634 36.378ZM161.138 34.4221H161.692L160.646 35.3324L161.138 34.4221Z" fill="#1992D4"/>
<path d="M155.899 35.5231C156.154 35.5231 156.408 35.5825 156.662 35.7014C156.867 35.7958 157.029 35.9065 157.148 36.0336C157.616 36.5216 157.854 37.2166 157.862 38.1188C157.87 39.0004 157.632 39.6954 157.148 40.2039C157.029 40.3269 156.867 40.4356 156.662 40.5299C156.408 40.6488 156.154 40.7083 155.899 40.7083C155.645 40.7083 155.391 40.6488 155.136 40.5299C154.931 40.4356 154.769 40.3269 154.65 40.2039C154.17 39.6954 153.933 39.0004 153.937 38.1188C153.945 37.2166 154.183 36.5216 154.65 36.0336C154.769 35.9065 154.931 35.7958 155.136 35.7014C155.391 35.5825 155.645 35.5231 155.899 35.5231ZM155.899 36.089C155.493 36.089 155.165 36.2489 154.915 36.5687C154.615 36.946 154.466 37.4627 154.466 38.1188C154.466 38.7707 154.615 39.2854 154.915 39.6626C155.165 39.9825 155.493 40.1424 155.899 40.1424C156.31 40.1424 156.638 39.9825 156.884 39.6626C157.183 39.2854 157.333 38.7707 157.333 38.1188C157.333 37.4627 157.183 36.946 156.884 36.5687C156.638 36.2489 156.31 36.089 155.899 36.089Z" fill="#1992D4"/>
<path d="M151.097 40.5545V36.1689H149.762V35.6031H152.949V36.1689H151.62V40.5545H151.097Z" fill="#1992D4"/>
<path d="M144.694 40.5545H144.159L143.052 36.5318V40.5545H142.516V35.6031H143.255L144.43 39.8164L145.599 35.6031H146.337V40.5545H145.802V36.5318L144.694 40.5545Z" fill="#1992D4"/>
<path d="M137.393 40.5545V35.603H140.21V36.1689H137.916V37.7312H140.124V38.291H137.916V39.9886H140.303V40.5545H137.393ZM138.315 35.5354H137.897L138.531 34.8588H139.023L139.657 35.5354H139.226L138.789 35.0679L138.315 35.5354ZM139.614 34.7665C139.655 34.7337 139.7 34.6783 139.749 34.6004C139.774 34.5307 139.786 34.4692 139.786 34.4159C139.786 34.2806 139.726 34.2129 139.608 34.2129C139.443 34.2129 139.349 34.3277 139.325 34.5574H139.146C139.138 34.3934 139.185 34.258 139.288 34.1514C139.394 34.0407 139.53 33.9956 139.694 34.0161C139.923 34.0407 140.038 34.1719 140.038 34.4098C140.038 34.4836 139.973 34.6107 139.841 34.7911C139.673 34.9018 139.589 34.9859 139.589 35.0433L139.491 35.1356C139.478 35.1069 139.472 35.0802 139.472 35.0556C139.472 34.9941 139.519 34.8977 139.614 34.7665Z" fill="#1992D4"/>
<path d="M135.217 40.5545V35.6031H135.739V40.5545H135.217Z" fill="#1992D4"/>
<path d="M130.706 35.6031H131.229V38.0573L133.241 35.6031H133.93L132.25 37.6267L133.911 40.5545H133.302L131.893 38.0634L131.229 38.8692V40.5545H130.706V35.6031Z" fill="#1992D4"/>
<path d="M124.723 35.3324L123.67 34.4221H124.237L124.723 35.3324ZM126.458 40.5545H125.873L125.461 39.0721H123.91L123.474 40.5545H122.914L124.39 35.603H125.036L126.458 40.5545ZM125.307 38.5432L124.71 36.378L124.046 38.5432H125.307Z" fill="#1992D4"/>
<path d="M120.329 39.7918L121.467 35.6031H122.021L120.593 40.5545H120.033L118.594 35.6031H119.154L120.329 39.7918Z" fill="#1992D4"/>
<path d="M115.09 40.5545H114.493L112.438 36.5872V40.5545H111.915V35.6031H112.53L114.567 39.6134V35.6031H115.09V40.5545Z" fill="#1992D4"/>
<path d="M107.37 39.0721L106.933 40.5545H106.373L107.849 35.603H108.495L109.917 40.5545H109.332L108.92 39.0721H107.37ZM108.169 36.378L107.505 38.5432H108.766L108.169 36.378ZM108.674 34.4221H109.228L108.182 35.3324L108.674 34.4221Z" fill="#1992D4"/>
<path d="M103.435 35.5231C103.689 35.5231 103.944 35.5825 104.198 35.7014C104.403 35.7958 104.565 35.9065 104.684 36.0336C105.152 36.5216 105.389 37.2166 105.398 38.1188C105.406 39.0004 105.168 39.6954 104.684 40.2039C104.565 40.3269 104.403 40.4356 104.198 40.5299C103.944 40.6488 103.689 40.7083 103.435 40.7083C103.181 40.7083 102.926 40.6488 102.672 40.5299C102.467 40.4356 102.305 40.3269 102.186 40.2039C101.706 39.6954 101.468 39.0004 101.472 38.1188C101.48 37.2166 101.718 36.5216 102.186 36.0336C102.305 35.9065 102.467 35.7958 102.672 35.7014C102.926 35.5825 103.181 35.5231 103.435 35.5231ZM103.435 36.089C103.029 36.089 102.701 36.2489 102.451 36.5687C102.151 36.946 102.001 37.4627 102.001 38.1188C102.001 38.7707 102.151 39.2854 102.451 39.6626C102.701 39.9825 103.029 40.1424 103.435 40.1424C103.845 40.1424 104.173 39.9825 104.419 39.6626C104.719 39.2854 104.869 38.7707 104.869 38.1188C104.869 37.4627 104.719 36.946 104.419 36.5687C104.173 36.2489 103.845 36.089 103.435 36.089Z" fill="#1992D4"/>
<path d="M98.6329 40.5545V36.1689H97.2978V35.6031H100.485V36.1689H99.1559V40.5545H98.6329Z" fill="#1992D4"/>
<path d="M90.2441 40.5545V35.603H93.0621V36.1689H90.7671V37.7312H92.9759V38.291H90.7671V39.9886H93.1544V40.5545H90.2441ZM91.1671 35.5354H90.7487L91.3824 34.8588H91.8746L92.5083 35.5354H92.0776L91.6408 35.0679L91.1671 35.5354ZM92.7606 34.1576H93.3266L92.2745 35.0679L92.7606 34.1576Z" fill="#1992D4"/>
<path d="M85.7887 35.6031H86.3117V38.0573L88.3236 35.6031H89.0127L87.333 37.6267L88.9942 40.5545H88.3851L86.9762 38.0634L86.3117 38.8692V40.5545H85.7887V35.6031Z" fill="#1992D4"/>
<path d="M81.4427 40.5545V35.6031H81.9657V40.5545H81.4427Z" fill="#1992D4"/>
<path d="M77.0887 35.5231C77.3512 35.5231 77.6055 35.5825 77.8516 35.7015C78.0526 35.7958 78.2126 35.9065 78.3315 36.0336C78.8032 36.5257 79.0411 37.2207 79.0452 38.1188C79.0493 39.0045 78.8114 39.6996 78.3315 40.2039C78.2126 40.327 78.0526 40.4377 77.8516 40.5361C77.6055 40.6509 77.3512 40.7083 77.0887 40.7083C76.8713 40.7083 76.6477 40.6632 76.418 40.573C76.176 40.4787 75.9832 40.3557 75.8397 40.2039C75.3557 39.6914 75.1178 38.9963 75.126 38.1188C75.1342 37.2207 75.3721 36.5257 75.8397 36.0336C75.9832 35.8819 76.176 35.7568 76.418 35.6584C76.6477 35.5682 76.8713 35.5231 77.0887 35.5231ZM77.0887 36.0951C76.5964 36.0951 76.2232 36.3186 75.9689 36.7656C75.7597 37.1346 75.6551 37.5857 75.6551 38.1188C75.6551 38.6519 75.7597 39.1009 75.9689 39.4658C76.2232 39.9169 76.5964 40.1424 77.0887 40.1424C77.5809 40.1424 77.9562 39.9169 78.2146 39.4658C78.4197 39.1009 78.5222 38.6519 78.5222 38.1188C78.5222 37.5857 78.4197 37.1346 78.2146 36.7656C77.9562 36.3186 77.5809 36.0951 77.0887 36.0951ZM76.6149 35.5231H76.2027L76.8302 34.8465H77.3225L77.9623 35.5231H77.5255L77.0887 35.0556L76.6149 35.5231ZM77.0887 41.4403C77.1707 41.4403 77.2445 41.4157 77.3102 41.3665C77.3758 41.3172 77.4086 41.2516 77.4086 41.1696C77.4086 41.0958 77.3737 41.0323 77.304 40.9789C77.2425 40.9379 77.1707 40.9174 77.0887 40.9174C77.0107 40.9174 76.9389 40.9379 76.8733 40.9789C76.8036 41.0323 76.7687 41.0958 76.7687 41.1696C76.7687 41.2516 76.8015 41.3172 76.8672 41.3665C76.9328 41.4157 77.0066 41.4403 77.0887 41.4403Z" fill="#1992D4"/>
<path d="M73.2751 40.5545V38.291H71.1955V40.5545H70.6725V35.6031H71.1955V37.7313H73.2751V35.6031H73.7981V40.5545H73.2751Z" fill="#1992D4"/>
<path d="M64.0902 40.5545V35.603H65.7945C65.8273 35.5989 65.8622 35.5969 65.8991 35.5969C66.1452 35.5969 66.3647 35.6768 66.5574 35.8368C66.8199 36.0459 66.9717 36.3678 67.0127 36.8025C67.0209 36.8886 67.025 36.9726 67.025 37.0547C67.025 37.5098 66.8979 37.8707 66.6436 38.1372C66.4344 38.3504 66.2067 38.4571 65.9606 38.4571H64.6193V40.5545H64.0902ZM64.6193 36.1689V37.8912H65.9483C66.0468 37.8912 66.1555 37.8256 66.2744 37.6943C66.4385 37.5139 66.5123 37.2761 66.4959 36.9808C66.4754 36.6856 66.379 36.4662 66.2067 36.3227C66.0837 36.2202 65.9442 36.1689 65.7884 36.1689H64.6193Z" fill="#1992D4"/>
<path d="M58.8804 40.5545V35.603H61.6983V36.1689H59.4034V37.7313H61.6122V38.291H59.4034V39.9886H61.7906V40.5545H58.8804ZM59.8033 35.5354H59.3849L60.0186 34.8588H60.5109L61.1446 35.5354H60.7139L60.2771 35.0679L59.8033 35.5354ZM60.2771 41.2803C60.3591 41.2803 60.4329 41.2557 60.4986 41.2065C60.5642 41.1614 60.597 41.0979 60.597 41.0158C60.597 40.9379 60.5642 40.8744 60.4986 40.8252C60.4329 40.7801 60.3591 40.7575 60.2771 40.7575C60.195 40.7575 60.1212 40.7801 60.0556 40.8252C59.9899 40.8744 59.9571 40.9379 59.9571 41.0158C59.9571 41.0979 59.9899 41.1614 60.0556 41.2065C60.1212 41.2557 60.195 41.2803 60.2771 41.2803Z" fill="#1992D4"/>
<path d="M56.7043 40.5545V35.6031H57.2273V40.5545H56.7043Z" fill="#1992D4"/>
<path d="M54.5028 40.5545V38.291H52.4232V40.5545H51.9002V35.6031H52.4232V37.7313H54.5028V35.6031H55.0257V40.5545H54.5028Z" fill="#1992D4"/>
<path d="M45.9024 39.0722L45.4655 40.5545H44.9056L46.3823 35.6031H47.0222L48.4496 40.5545H47.8651L47.4529 39.0722H45.9024ZM46.7022 36.3781L46.0377 38.5432H47.299L46.7022 36.3781Z" fill="#1992D4"/>
<path d="M39.7058 35.6031H40.2288V39.1337C40.2288 39.3879 40.3026 39.6093 40.4503 39.798C40.6308 40.044 40.9015 40.167 41.2624 40.167C41.6234 40.167 41.8982 40.044 42.0869 39.798C42.2305 39.6134 42.3022 39.392 42.3022 39.1337V35.6031H42.8252V39.1767C42.8252 39.5376 42.7165 39.8615 42.4991 40.1486C42.2161 40.5217 41.8039 40.7083 41.2624 40.7083C40.7251 40.7083 40.3149 40.5217 40.0319 40.1486C39.8145 39.8574 39.7058 39.5335 39.7058 39.1767V35.6031ZM41.367 35.3078C41.4081 35.2709 41.4532 35.2135 41.5024 35.1356C41.527 35.0659 41.5393 35.0044 41.5393 34.9511C41.5393 34.8157 41.4798 34.7481 41.3609 34.7481C41.1968 34.7481 41.1025 34.8629 41.0779 35.0925H40.8933C40.8892 34.9285 40.9384 34.7932 41.0409 34.6866C41.1476 34.5799 41.2829 34.5348 41.447 34.5512C41.6767 34.5758 41.7916 34.7071 41.7916 34.9449C41.7916 35.0187 41.7259 35.1458 41.5947 35.3263C41.4265 35.4411 41.3424 35.5251 41.3424 35.5784L41.244 35.6707C41.2276 35.6461 41.2194 35.6195 41.2194 35.5907C41.2194 35.5333 41.2686 35.439 41.367 35.3078Z" fill="#1992D4"/>
<path d="M38.218 37.1285H37.6827C37.4817 36.4355 37.1187 36.089 36.5937 36.089C36.2286 36.089 35.9374 36.2489 35.72 36.5687C35.4575 36.9419 35.3262 37.4586 35.3262 38.1188C35.3262 38.7749 35.4575 39.2895 35.72 39.6627C35.9374 39.9825 36.2286 40.1424 36.5937 40.1424C37.1679 40.1424 37.5576 39.675 37.7627 38.74H38.298C38.2077 39.3264 38.0129 39.798 37.7135 40.1547C37.3976 40.532 37.0141 40.7165 36.5629 40.7083C36.3332 40.7083 36.1056 40.6488 35.88 40.5299C35.6913 40.4315 35.5457 40.3229 35.4431 40.2039C35.0042 39.6914 34.7868 38.9963 34.7909 38.1188C34.7991 37.2207 35.0165 36.5257 35.4431 36.0336C35.5457 35.9106 35.6913 35.7999 35.88 35.7015C36.1056 35.5867 36.3332 35.5272 36.5629 35.5231C37.4079 35.5108 37.9596 36.0459 38.218 37.1285Z" fill="#1992D4"/>
<path d="M31.1885 40.5545H30.5917L28.5367 36.5872V40.5545H28.0138V35.6031H28.629L30.6656 39.6134V35.6031H31.1885V40.5545Z" fill="#1992D4"/>
<path d="M24.2843 39.0722L23.8475 40.5545H23.2876L24.7642 35.6031H25.4041L26.8315 40.5545H26.247L25.8348 39.0722H24.2843ZM25.0842 36.3781L24.4197 38.5432H25.681L25.0842 36.3781Z" fill="#1992D4"/>
<path d="M18.9634 35.6031H19.4864V39.1337C19.4864 39.3838 19.5602 39.6052 19.7078 39.798C19.8924 40.044 20.1652 40.167 20.5261 40.167C20.883 40.167 21.1537 40.044 21.3383 39.798C21.486 39.6052 21.5598 39.3838 21.5598 39.1337V35.6031H22.0828V39.1767C22.0828 39.5335 21.9741 39.8554 21.7567 40.1424C21.4737 40.5197 21.0635 40.7083 20.5261 40.7083C19.9847 40.7083 19.5725 40.5197 19.2895 40.1424C19.0721 39.8554 18.9634 39.5335 18.9634 39.1767V35.6031Z" fill="#1992D4"/>
<path d="M17.0346 40.0378L17.5575 40.5545L17.2868 40.9543L16.7085 40.37C16.3516 40.5955 15.9968 40.7083 15.644 40.7083C15.3897 40.7083 15.1354 40.6488 14.8811 40.5299C14.676 40.4356 14.514 40.3269 14.3951 40.2039C13.9152 39.6954 13.6772 39.0004 13.6814 38.1188C13.6896 37.2166 13.9275 36.5216 14.3951 36.0336C14.514 35.9065 14.676 35.7958 14.8811 35.7014C15.1354 35.5825 15.3897 35.5231 15.644 35.5231C15.8984 35.5231 16.1527 35.5825 16.407 35.7014C16.6121 35.7958 16.7741 35.9065 16.893 36.0336C17.3606 36.5216 17.5985 37.2166 17.6067 38.1188C17.6108 38.8979 17.4201 39.5376 17.0346 40.0378ZM16.2962 39.9579L15.884 39.5396L16.1424 39.1644L16.6469 39.6565C16.9341 39.2792 17.0776 38.7666 17.0776 38.1188C17.0776 37.4627 16.9279 36.946 16.6285 36.5687C16.3824 36.2489 16.0542 36.089 15.644 36.089C15.238 36.089 14.9098 36.2489 14.6596 36.5687C14.3602 36.946 14.2105 37.4627 14.2105 38.1188C14.2105 38.7707 14.3602 39.2854 14.6596 39.6626C14.9098 39.9825 15.238 40.1424 15.644 40.1424C15.8696 40.1424 16.087 40.0809 16.2962 39.9579Z" fill="#1992D4"/>
<path d="M7.44657 36.0951C6.95436 36.0951 6.5811 36.3186 6.32679 36.7656C6.1176 37.1346 6.013 37.5857 6.013 38.1188C6.013 38.6518 6.1176 39.1009 6.32679 39.4658C6.5811 39.9169 6.95436 40.1424 7.44657 40.1424C7.93878 40.1424 8.3141 39.9169 8.57251 39.4658C8.7776 39.1009 8.88014 38.6518 8.88014 38.1188C8.88014 37.5857 8.7776 37.1346 8.57251 36.7656C8.3141 36.3186 7.93878 36.0951 7.44657 36.0951ZM8.12952 35.6707L8.46176 35.6522H8.59712C8.63403 35.603 8.65249 35.5559 8.65249 35.5108C8.65249 35.4411 8.61763 35.3857 8.5479 35.3447C8.60122 35.2873 8.6771 35.2586 8.77555 35.2586C8.91911 35.2586 8.99089 35.3262 8.99089 35.4616C8.99089 35.5559 8.92526 35.6686 8.794 35.7999C8.74888 35.8368 8.68531 35.886 8.60327 35.9475C8.63609 35.9762 8.6648 36.0049 8.68941 36.0336C9.16111 36.5216 9.39902 37.2166 9.40312 38.1188C9.40722 39.0045 9.16932 39.6995 8.68941 40.2039C8.57046 40.3269 8.41049 40.4377 8.2095 40.5361C7.96339 40.6509 7.70908 40.7083 7.44657 40.7083C7.22918 40.7083 7.00563 40.6632 6.77593 40.573C6.53393 40.4787 6.34114 40.3556 6.19758 40.2039C5.71357 39.6913 5.47567 38.9963 5.48387 38.1188C5.49208 37.2166 5.72998 36.5216 6.19758 36.0336C6.34524 35.8778 6.53598 35.7548 6.76978 35.6645C7.00358 35.5702 7.22918 35.5231 7.44657 35.5231C7.67217 35.5231 7.89982 35.5723 8.12952 35.6707Z" fill="#1992D4"/>
<path d="M4.26059 37.1285H3.7253C3.52432 36.4355 3.16131 36.089 2.63628 36.089C2.27123 36.089 1.98 36.2489 1.7626 36.5687C1.50009 36.9419 1.36883 37.4586 1.36883 38.1188C1.36883 38.7749 1.50009 39.2895 1.7626 39.6627C1.98 39.9825 2.27123 40.1424 2.63628 40.1424C3.21053 40.1424 3.6002 39.675 3.80529 38.74H4.34057C4.25033 39.3264 4.0555 39.798 3.75607 40.1547C3.44023 40.532 3.05671 40.7165 2.60552 40.7083C2.37582 40.7083 2.14817 40.6488 1.92257 40.5299C1.73389 40.4315 1.58828 40.3229 1.48574 40.2039C1.04685 39.6914 0.829451 38.9963 0.833553 38.1188C0.841757 37.2207 1.05915 36.5257 1.48574 36.0336C1.58828 35.9106 1.73389 35.7999 1.92257 35.7015C2.14817 35.5867 2.37582 35.5272 2.60552 35.5231C3.45049 35.5108 4.00217 36.0459 4.26059 37.1285Z" fill="#1992D4"/>
<path d="M24.2899 32.0957H22.9689V24.2274H24.2899V32.0957ZM23.3817 23.3746L24.2899 21.6826H25.2668L23.9046 23.3746H23.3817Z" fill="#1992D4"/>
<path d="M20.3777 22.3017V24.6814H20.4052C20.5979 24.3146 20.9006 24.1312 21.3134 24.1312C21.7629 24.1312 22.0564 24.2641 22.194 24.5301C22.2857 24.7043 22.3316 25.0436 22.3316 25.548V32.0957H21.0107V25.7406C21.0107 25.4196 20.9144 25.2591 20.7217 25.2591C20.4924 25.2591 20.3777 25.4196 20.3777 25.7406V32.0957H19.0568V22.3017H20.3777Z" fill="#1992D4"/>
<path d="M15.2272 30.8715V25.4517C15.2272 25.0482 15.374 24.7273 15.6675 24.4888C15.9611 24.2504 16.3601 24.1312 16.8646 24.1312C17.3691 24.1312 17.7682 24.2504 18.0617 24.4888C18.3552 24.7273 18.502 25.0482 18.502 25.4517V27.0336H17.1811V25.5755C17.1811 25.2546 17.0756 25.0941 16.8646 25.0941C16.6536 25.0941 16.5481 25.2546 16.5481 25.5755V30.8439C16.5481 31.1007 16.6536 31.2291 16.8646 31.2291C17.0756 31.2291 17.1811 31.1007 17.1811 30.8439V29.0007H18.502V30.8715C18.502 31.275 18.3552 31.5959 18.0617 31.8344C17.7682 32.0728 17.3691 32.192 16.8646 32.192C16.3601 32.192 15.9611 32.0728 15.6675 31.8344C15.374 31.5959 15.2272 31.275 15.2272 30.8715Z" fill="#1992D4"/>
<path d="M11.0672 30.5826V25.7406C11.0672 25.4196 10.9617 25.2591 10.7507 25.2591C10.5398 25.2591 10.4343 25.4196 10.4343 25.7406V30.5826C10.4343 30.9036 10.5398 31.064 10.7507 31.064C10.9617 31.064 11.0672 30.9036 11.0672 30.5826ZM9.11334 33.8564V24.2275H10.4343V24.6952H10.4618C10.7278 24.3192 11.0443 24.1312 11.4112 24.1312C12.0625 24.1312 12.3881 24.4384 12.3881 25.0528V31.2704C12.3881 31.8848 12.0625 32.192 11.4112 32.192C11.0259 32.192 10.7095 31.9948 10.4618 31.6005H10.4343V33.8564H9.11334Z" fill="#1992D4"/>
<path d="M7.23763 30.7477V28.024C6.81566 28.2716 6.60468 28.5376 6.60468 28.8219V30.8027C6.64138 30.9953 6.74687 31.0824 6.92116 31.064C7.13214 31.0365 7.23763 30.9311 7.23763 30.7477ZM8.55855 25.4517V32.0957H7.32018C7.26514 31.9857 7.23763 31.8068 7.23763 31.5592H7.21011C7.06334 31.7977 6.92115 31.9627 6.78356 32.0544C6.64596 32.1462 6.44415 32.192 6.17814 32.192C5.58189 32.192 5.28376 31.8894 5.28376 31.2841V28.643C5.28376 28.1937 5.44888 27.8681 5.77911 27.6664C5.98091 27.5472 6.28821 27.3683 6.701 27.1299C7.03123 26.864 7.19635 26.4467 7.19635 25.8781C7.19635 25.3554 7.1092 25.0941 6.93491 25.0941C6.7698 25.0941 6.6689 25.2087 6.6322 25.438C6.62303 25.493 6.61844 25.681 6.61844 26.0019V27.0336H5.28376V25.4517C5.28376 25.0115 5.45346 24.6722 5.79287 24.4338C6.0864 24.232 6.4625 24.1312 6.92116 24.1312C7.37981 24.1312 7.7559 24.232 8.04944 24.4338C8.38885 24.6722 8.55855 25.0115 8.55855 25.4517ZM7.4165 33.4163H6.42581V32.5634H7.4165V33.4163Z" fill="#1992D4"/>
<path d="M0.833496 22.3017H4.83754V23.5809H3.57166V32.0957H2.11314V23.5809H0.833496V22.3017Z" fill="#1992D4"/>
</svg>
