<svg xmlns="http://www.w3.org/2000/svg" width="15" height="15" viewBox="0 0 15 15" fill="none">
                                                <g clip-path="url(#clip0_1_550)">
                                                    <path d="M13.2556 11.2133L10.4406 9.76293C10.0452 9.55799 9.55498 9.66834 9.28613 10.0152L8.25819 11.3394C7.24607 10.8034 6.48698 10.2832 5.60137 9.40034C4.6525 8.45447 4.14644 7.682 3.64038 6.7046L4.95297 5.6799C5.30089 5.4119 5.41159 4.9232 5.20601 4.52909L3.75108 1.73876C3.49805 1.25005 2.86547 1.09241 2.40685 1.39194L0.619818 2.59004C0.208642 2.87381 -0.0285743 3.34674 0.00305455 3.83545C0.0346834 4.33991 0.0979412 4.98626 0.224457 5.42767C0.746333 7.42977 1.99567 9.49493 3.76689 11.2448C5.52229 12.9947 7.59399 14.2401 9.60242 14.7761C10.0452 14.8864 10.6936 14.9495 11.2155 14.9968C11.7216 15.0283 12.2118 14.7918 12.4806 14.3662L13.6509 12.5533C13.9039 12.0803 13.73 11.4655 13.2556 11.2133Z" fill="#152764"></path>
                                                    <path d="M7.56245 5.8851C7.91037 5.97969 8.25829 6.16887 8.52713 6.45263C8.81179 6.73639 9.00156 7.06745 9.09645 7.41427C9.17552 7.69803 9.44437 7.88721 9.74484 7.87144H9.8081C10.2193 7.85568 10.5197 7.46156 10.409 7.06745C10.2509 6.49992 9.95043 5.94816 9.49181 5.50675C9.03319 5.04958 8.4955 4.75005 7.92618 4.59241C7.53082 4.48206 7.13546 4.78158 7.11965 5.19146V5.25452C7.08802 5.53828 7.27779 5.80628 7.56245 5.8851Z" fill="#152764"></path>
                                                    <path d="M7.75224 3.6149C8.62203 3.77255 9.4602 4.18243 10.1244 4.84454C10.8044 5.52241 11.2156 6.34217 11.3579 7.20922C11.4212 7.52452 11.7059 7.76099 12.038 7.74522H12.0854C12.4808 7.72946 12.7654 7.36687 12.6863 6.98852C12.4808 5.85347 11.9431 4.76572 11.0733 3.8829C10.1877 3.00008 9.11228 2.46409 7.95782 2.27491C7.57828 2.21185 7.21454 2.49562 7.19873 2.87397V2.92126C7.19873 3.26808 7.43595 3.55184 7.75224 3.6149Z" fill="#152764"></path>
                                                    <path d="M14.9952 6.89391C14.758 5.2071 13.9989 3.58335 12.7021 2.29066C11.4053 0.997961 9.77646 0.241262 8.08431 0.00479282C7.70477 -0.0425009 7.35685 0.225497 7.34103 0.619612V0.68267C7.32522 1.02949 7.57825 1.31325 7.91035 1.36055C9.31784 1.54972 10.6621 2.19607 11.7374 3.26806C12.8128 4.34005 13.4454 5.69581 13.651 7.08309C13.6984 7.41415 13.9831 7.66638 14.331 7.65061H14.3943C14.758 7.61908 15.0427 7.27226 14.9952 6.89391Z" fill="#152764"></path>
                                                </g>
                                            </svg>